{
  "accessors": [
    {
      "bufferView": 2,
      "componentType": 5126,
      "count": 65532,
      "max": [
        74.232841491699219,
        96.40997314453125,
        -0.0981292724609375
      ],
      "min": [
        -106.305419921875,
        19.366540908813477,
        -101.25937652587891
      ],
      "type": "VEC3"
    },
    {
      "bufferView": 2,
      "byteOffset": 786384,
      "componentType": 5126,
      "count": 65532,
      "max": [
        0.99999344348907471,
        0.99995911121368408,
        0.99996763467788696
      ],
      "min": [
        -0.99997580051422119,
        -0.99954342842102051,
        -0.99995511770248413
      ],
      "type": "VEC3"
    },
    {
      "bufferView": 1,
      "componentType": 5126,
      "count": 65532,
      "max": [
        0.359820157289505,
        0.99074470996856689
      ],
      "min": [
        0.0092552993446588516,
        0.56101977825164795
      ],
      "type": "VEC2"
    },
    {
      "bufferView": 0,
      "componentType": 5125,
      "count": 373116,
      "max": [
        65531
      ],
      "min": [
        0
      ],
      "type": "SCALAR"
    },
    {
      "bufferView": 2,
      "byteOffset": 1572768,
      "componentType": 5126,
      "count": 65532,
      "max": [
        72.42864990234375,
        84.325180053710938,
        143.42732238769531
      ],
      "min": [
        -105.2003173828125,
        -139.81031799316406,
        -101.22750091552734
      ],
      "type": "VEC3"
    },
    {
      "bufferView": 2,
      "byteOffset": 2359152,
      "componentType": 5126,
      "count": 65532,
      "max": [
        0.99998283386230469,
        0.99998801946640015,
        0.99994844198226929
      ],
      "min": [
        -0.99997127056121826,
        -0.99998021125793457,
        -0.99998879432678223
      ],
      "type": "VEC3"
    },
    {
      "bufferView": 1,
      "byteOffset": 524256,
      "componentType": 5126,
      "count": 65532,
      "max": [
        0.94973242282867432,
        0.99074470996856689
      ],
      "min": [
        0.04824400320649147,
        0.074011445045471191
      ],
      "type": "VEC2"
    },
    {
      "bufferView": 0,
      "byteOffset": 1492464,
      "componentType": 5125,
      "count": 341343,
      "max": [
        65531
      ],
      "min": [
        0
      ],
      "type": "SCALAR"
    },
    {
      "bufferView": 2,
      "byteOffset": 3145536,
      "componentType": 5126,
      "count": 65532,
      "max": [
        49.635044097900391,
        70.986679077148438,
        105.96414184570312
      ],
      "min": [
        -98.991851806640625,
        -124.06545257568359,
        -50.207576751708984
      ],
      "type": "VEC3"
    },
    {
      "bufferView": 2,
      "byteOffset": 3931920,
      "componentType": 5126,
      "count": 65532,
      "max": [
        0.99998205900192261,
        1,
        1
      ],
      "min": [
        -0.99999707937240601,
        -0.99999880790710449,
        -0.99999690055847168
      ],
      "type": "VEC3"
    },
    {
      "bufferView": 1,
      "byteOffset": 1048512,
      "componentType": 5126,
      "count": 65532,
      "max": [
        0.98684245347976685,
        0.94446820020675659
      ],
      "min": [
        0.0092552993446588516,
        0.0018097758293151855
      ],
      "type": "VEC2"
    },
    {
      "bufferView": 0,
      "byteOffset": 2857836,
      "componentType": 5125,
      "count": 341454,
      "max": [
        65531
      ],
      "min": [
        0
      ],
      "type": "SCALAR"
    },
    {
      "bufferView": 2,
      "byteOffset": 4718304,
      "componentType": 5126,
      "count": 30007,
      "max": [
        50.732196807861328,
        54.128791809082031,
        102.01533508300781
      ],
      "min": [
        -79.983543395996094,
        -124.24055480957031,
        -38.045463562011719
      ],
      "type": "VEC3"
    },
    {
      "bufferView": 2,
      "byteOffset": 5078388,
      "componentType": 5126,
      "count": 30007,
      "max": [
        1,
        1,
        1
      ],
      "min": [
        -0.99998408555984497,
        -1,
        -1
      ],
      "type": "VEC3"
    },
    {
      "bufferView": 1,
      "byteOffset": 1572768,
      "componentType": 5126,
      "count": 30007,
      "max": [
        0.98967772722244263,
        0.92595762014389038
      ],
      "min": [
        0.0092552993446588516,
        0.00044077634811401367
      ],
      "type": "VEC2"
    },
    {
      "bufferView": 0,
      "byteOffset": 4223652,
      "componentType": 5125,
      "count": 136152,
      "max": [
        30006
      ],
      "min": [
        0
      ],
      "type": "SCALAR"
    }
  ],
  "asset": {
    "extras": {
      "author": "The Cable Center (https://sketchfab.com/thecablecenter)",
      "license": "CC0-1.0 (http://creativecommons.org/publicdomain/zero/1.0/)",
      "source": "https://sketchfab.com/3d-models/abel-cable-mascot-30ab4573ee7f4b5bbc516fc6619e533b",
      "title": "Abel Cable Mascot"
    },
    "generator": "Sketchfab-7.80.0",
    "version": "2.0"
  },
  "bufferViews": [
    {
      "buffer": 0,
      "byteLength": 4768260,
      "byteOffset": 0,
      "name": "floatBufferViews",
      "target": 34963
    },
    {
      "buffer": 0,
      "byteLength": 1812824,
      "byteOffset": 4768260,
      "byteStride": 8,
      "name": "floatBufferViews",
      "target": 34962
    },
    {
      "buffer": 0,
      "byteLength": 5438472,
      "byteOffset": 6581084,
      "byteStride": 12,
      "name": "floatBufferViews",
      "target": 34962
    }
  ],
  "buffers": [
    {
      "byteLength": 12019556,
      "uri": "scene.bin"
    }
  ],
  "images": [
    {
      "uri": "textures/material_0_baseColor.png"
    }
  ],
  "materials": [
    {
      "doubleSided": true,
      "emissiveFactor": [
        0,
        0,
        0
      ],
      "name": "material_0",
      "pbrMetallicRoughness": {
        "baseColorFactor": [
          1,
          1,
          1,
          1
        ],
        "baseColorTexture": {
          "index": 0,
          "texCoord": 0
        },
        "metallicFactor": 0.029999999999999999,
        "roughnessFactor": 0.20000000000000001
      }
    }
  ],
  "meshes": [
    {
      "primitives": [
        {
          "attributes": {
            "NORMAL": 1,
            "POSITION": 0,
            "TEXCOORD_0": 2
          },
          "indices": 3,
          "material": 0,
          "mode": 4
        }
      ]
    },
    {
      "primitives": [
        {
          "attributes": {
            "NORMAL": 5,
            "POSITION": 4,
            "TEXCOORD_0": 6
          },
          "indices": 7,
          "material": 0,
          "mode": 4
        }
      ]
    },
    {
      "primitives": [
        {
          "attributes": {
            "NORMAL": 9,
            "POSITION": 8,
            "TEXCOORD_0": 10
          },
          "indices": 11,
          "material": 0,
          "mode": 4
        }
      ]
    },
    {
      "primitives": [
        {
          "attributes": {
            "NORMAL": 13,
            "POSITION": 12,
            "TEXCOORD_0": 14
          },
          "indices": 15,
          "material": 0,
          "mode": 4
        }
      ]
    }
  ],
  "nodes": [
    {
      "children": [
        1
      ],
      "name": "RootNode (gltf orientation matrix)",
      "rotation": [
        -0.70710678118654746,
        -0,
        -0,
        0.70710678118654757
      ]
    },
    {
      "children": [
        2
      ],
      "name": "RootNode (model correction matrix)"
    },
    {
      "children": [
        3,
        4,
        5,
        6
      ],
      "name": "abel_highpoly_meshexp.obj.cleaner.gles"
    },
    {
      "mesh": 0,
      "name": ""
    },
    {
      "mesh": 1,
      "name": ""
    },
    {
      "mesh": 2,
      "name": ""
    },
    {
      "mesh": 3,
      "name": ""
    }
  ],
  "samplers": [
    {
      "magFilter": 9729,
      "minFilter": 9987,
      "wrapS": 10497,
      "wrapT": 10497
    }
  ],
  "scene": 0,
  "scenes": [
    {
      "name": "OSG_Scene",
      "nodes": [
        0
      ]
    }
  ],
  "textures": [
    {
      "sampler": 0,
      "source": 0
    }
  ]
}

